<svg width="30" height="30" viewBox="0 0 30 30" fill="none" xmlns="http://www.w3.org/2000/svg">
<g clip-path="url(#clip0_3_513)">
<path d="M22.9871 4.90145C23.0001 4.90239 23.0132 4.90332 23.0265 4.90332C23.049 4.90332 23.0716 4.90145 23.0937 4.89841C23.6844 4.91034 24.1571 5.38512 24.1578 5.96725C24.1578 6.23177 24.3755 6.44624 24.6439 6.44624C24.9123 6.44624 25.1299 6.23177 25.1299 5.96725C25.1287 5.01512 24.4562 4.19139 23.5125 3.98651V3.52623C23.5125 3.26171 23.2949 3.04724 23.0265 3.04724C22.7581 3.04724 22.5404 3.26171 22.5404 3.52623V4.00826C21.5427 4.27114 20.8972 5.22234 21.0318 6.23154C21.1663 7.24074 22.0392 7.99524 23.0721 7.99524C23.6718 7.99524 24.1578 8.47446 24.1578 9.06548C24.1578 9.65627 23.6718 10.1355 23.0721 10.1355C22.4723 10.1355 21.9863 9.65627 21.9863 9.06548C21.9863 8.80096 21.7687 8.58649 21.5002 8.58649C21.2318 8.58649 21.0142 8.80096 21.0142 9.06548C21.0154 9.98323 21.641 10.7861 22.5404 11.0245V11.5493C22.5404 11.8138 22.7581 12.0283 23.0265 12.0283C23.2949 12.0283 23.5125 11.8138 23.5125 11.5493V11.0465C24.539 10.825 25.2313 9.87682 25.1181 8.84727C25.0051 7.81772 24.1229 7.03749 23.0721 7.03773C22.4889 7.03796 22.0098 6.58423 21.9868 6.01005C21.964 5.43587 22.4056 4.94636 22.9871 4.90169V4.90145Z" fill="#E50914"/>
<path d="M23.0998 0.705322C20.1097 0.705322 17.558 2.62806 16.602 5.20263H4.53841C4.27118 5.20263 4.05427 5.44002 4.05237 5.70314L3.9375 22.5061H0.498863C0.230445 22.5061 0 22.6977 0 22.9627V25.095C0.00617049 27.1024 1.6105 28.7515 3.64535 28.8422V28.8527H18.652V28.8387C18.7736 28.8431 18.8236 28.8527 18.9005 28.8527H18.911C21.017 28.8495 22.7227 27.166 22.7227 25.0905V14.3095C22.8442 14.3161 22.9728 14.3196 23.0986 14.3196C26.9037 14.3196 30.0001 11.2623 30.0001 7.51221C30.0001 3.76239 26.9051 0.705322 23.0998 0.705322ZM3.83023 27.8948H3.82714C2.25485 27.8927 0.979213 26.6397 0.972094 25.09V23.4641H15.0675V25.0833C15.0682 26.0829 15.4733 27.0411 16.1929 27.7458C16.2439 27.7961 16.3073 27.8349 16.3606 27.8948H3.83023ZM21.7506 25.09C21.7508 26.6369 20.4799 27.8917 18.9105 27.8948H18.9012C17.3254 27.892 16.0474 26.6365 16.0395 25.0837V22.9627C16.0436 22.8401 15.9961 22.7215 15.9081 22.635C15.82 22.5485 15.6997 22.5019 15.5756 22.5061H4.9096L5.02114 6.16061H16.3322C16.246 6.59914 16.2014 7.04445 16.199 7.49093C16.1981 8.43511 16.3979 9.36876 16.7857 10.232H12.1948C11.9262 10.232 11.7088 10.4465 11.7088 10.711C11.7088 10.9755 11.9262 11.19 12.1948 11.19H17.313C18.3158 12.7439 19.9187 13.8272 21.7506 14.1898V25.09ZM23.0998 13.3618C19.8256 13.3618 17.1711 10.7461 17.1714 7.51923C17.1714 4.29236 19.8256 1.67663 23.1 1.67663C26.3742 1.67663 29.0285 4.2926 29.0285 7.51923C29.0249 10.7445 26.3728 13.3583 23.0998 13.3618Z" fill="#E50914"/>
<path d="M9.07496 13.4198C8.21702 13.4198 7.51927 14.0857 7.51927 14.9043C7.51927 15.7228 8.21702 16.3887 9.07496 16.3887C9.9329 16.3887 10.6309 15.7228 10.6309 14.9043C10.6309 14.0857 9.9329 13.4198 9.07496 13.4198ZM9.07496 15.4307C8.7529 15.4307 8.49137 15.1945 8.49137 14.9043C8.49137 14.6138 8.75314 14.3778 9.07496 14.3778C9.39677 14.3778 9.65878 14.614 9.65878 14.9043C9.65878 15.1945 9.39677 15.4307 9.07496 15.4307Z" fill="#E50914"/>
<path d="M11.7088 14.9022C11.7088 15.1667 11.9262 15.3812 12.1948 15.3812H18.6748C18.9432 15.3812 19.1609 15.1667 19.1609 14.9022C19.1609 14.6377 18.9432 14.4232 18.6748 14.4232H12.1948C11.9262 14.4232 11.7088 14.6377 11.7088 14.9022Z" fill="#E50914"/>
<path d="M9.07496 9.2561C8.21702 9.2561 7.51927 9.9222 7.51927 10.7408C7.51927 11.5594 8.21702 12.2252 9.07496 12.2252C9.9329 12.2252 10.6309 11.5594 10.6309 10.7408C10.6309 9.9222 9.9329 9.2561 9.07496 9.2561ZM9.07496 11.2673C8.7529 11.2673 8.49137 11.031 8.49137 10.7408C8.49137 10.4505 8.75314 10.2141 9.07496 10.2141C9.39677 10.2141 9.65878 10.4503 9.65878 10.7408C9.65878 11.031 9.39677 11.2675 9.07496 11.2675V11.2673Z" fill="#E50914"/>
<path d="M9.07496 17.5831C8.21702 17.5831 7.51927 18.249 7.51927 19.0676C7.51927 19.8862 8.21702 20.552 9.07496 20.552C9.9329 20.552 10.6309 19.8862 10.6309 19.0676C10.6309 18.249 9.9329 17.5831 9.07496 17.5831ZM9.07496 19.594C8.7529 19.594 8.49137 19.358 8.49137 19.0676C8.49137 18.7773 8.75314 18.5411 9.07496 18.5411C9.39677 18.5411 9.65878 18.7773 9.65878 19.0676C9.65878 19.3578 9.39677 19.594 9.07496 19.594Z" fill="#E50914"/>
<path d="M18.6748 18.6144H12.1948C11.9262 18.6144 11.7088 18.8288 11.7088 19.0934C11.7088 19.3579 11.9262 19.5724 12.1948 19.5724H18.6748C18.9432 19.5724 19.1609 19.3579 19.1609 19.0934C19.1609 18.8288 18.9432 18.6144 18.6748 18.6144Z" fill="#E50914"/>
</g>
<defs>
<clipPath id="clip0_3_513">
<rect width="30" height="29.5644" fill="white"/>
</clipPath>
</defs>
</svg>
