<svg width="30" height="30" viewBox="0 0 30 30" fill="none" xmlns="http://www.w3.org/2000/svg">
<path d="M29.509 9.68198H4.8384V9.16438L29.5913 4.89297C29.6547 4.88301 29.7156 4.86052 29.7702 4.8268C29.8249 4.79308 29.8723 4.74881 29.9097 4.69657C29.947 4.64434 29.9736 4.58519 29.9879 4.52256C30.0022 4.45994 30.0038 4.3951 29.9928 4.33184L29.3059 0.40872C29.2959 0.345269 29.2734 0.284438 29.2397 0.229774C29.206 0.175109 29.1617 0.127708 29.1095 0.0903335C29.0572 0.0529593 28.9981 0.0263613 28.9355 0.012091C28.8728 -0.00217923 28.808 -0.003836 28.7447 0.00721745L0.402525 4.90265C0.276943 4.92797 0.165043 4.99855 0.0880952 5.10098C0.0157897 5.20716 -0.0135948 5.3368 0.00585978 5.46378L0.102607 6.01041C0.0390612 6.09221 0.00345268 6.19225 0.0010224 6.29581V29.5152C0.0010224 29.6435 0.0519875 29.7666 0.142706 29.8573C0.233424 29.948 0.356465 29.999 0.48476 29.999H29.509C29.6373 29.999 29.7604 29.948 29.8511 29.8573C29.9418 29.7666 29.9928 29.6435 29.9928 29.5152V10.1657C29.9928 10.0374 29.9418 9.91438 29.8511 9.82366C29.7604 9.73294 29.6373 9.68198 29.509 9.68198ZM0.968499 6.77955H3.87093V11.6169H0.968499V6.77955ZM1.73764 12.5844L0.968499 13.3535V12.5844H1.73764ZM0.968499 16.4543H29.0253V17.4218H0.968499V16.4543ZM0.968499 15.4868V14.5194H29.0253V15.4868H0.968499ZM21.4838 13.5519L24.3863 10.6495H27.8595L24.9571 13.5519H21.4838ZM20.1197 13.5519H16.6464L19.5489 10.6495H23.0221L20.1197 13.5519ZM15.2823 13.5519H11.8091L14.7115 10.6495H18.1847L15.2823 13.5519ZM10.4449 13.5519H6.97169L9.87412 10.6495H13.3474L10.4449 13.5519ZM26.3212 13.5519L29.0253 10.8478V13.5519H26.3212ZM8.50997 10.6495L5.60755 13.5519H2.13431L3.10178 12.5844H4.35466C4.48296 12.5844 4.606 12.5334 4.69672 12.4427C4.78744 12.352 4.8384 12.229 4.8384 12.1007V10.6495H8.50997ZM4.5143 5.84594L5.03674 5.08647L8.44709 4.49631L6.0284 7.97438L4.8384 8.18239V6.29581C4.83701 6.19664 4.80518 6.1003 4.7472 6.01983C4.68923 5.93936 4.60792 5.87865 4.5143 5.84594ZM20.2503 5.52183L16.8641 6.10715L19.2828 2.62908L22.6061 2.05827L20.2503 5.52183ZM23.917 1.83091L27.3032 1.24075L24.9571 4.70915L21.5709 5.29447L23.917 1.83091ZM15.5339 6.33451L12.1477 6.92467L14.5664 3.45143L17.9525 2.86127L15.5339 6.33451ZM10.7884 7.15687L7.40221 7.74219L9.8209 4.26895L13.2313 3.67879L10.7884 7.15687ZM26.297 4.48179L28.4738 1.26494L28.9576 4.02224L26.297 4.48179ZM3.70162 5.32834L3.35816 5.81207H1.05073V5.77821L3.70162 5.32834ZM0.968499 29.0315V18.3893H29.0253V29.0315H0.968499Z" fill="#E50914"/>
<path d="M1.93597 7.79541H2.90345V8.76289H1.93597V7.79541Z" fill="#E50914"/>
<path d="M1.93597 9.68213H2.90345V10.6496H1.93597V9.68213Z" fill="#E50914"/>
<path d="M6.77338 23.5219L7.32485 24.441C7.36768 24.5132 7.42856 24.573 7.50149 24.6145C7.57443 24.656 7.65692 24.6779 7.74086 24.6779C7.8248 24.6779 7.90729 24.656 7.98023 24.6145C8.05317 24.573 8.11404 24.5132 8.15688 24.441L8.70834 23.5219V26.1292H9.67581V21.7756C9.67578 21.6696 9.64095 21.5666 9.57666 21.4823C9.51238 21.3981 9.4222 21.3372 9.31999 21.3092C9.21778 21.2812 9.1092 21.2875 9.01093 21.3272C8.91266 21.3669 8.83014 21.4377 8.77606 21.5289L7.74086 23.2558L6.70566 21.5289C6.65158 21.4377 6.56906 21.3669 6.47079 21.3272C6.37252 21.2875 6.26394 21.2812 6.16173 21.3092C6.05952 21.3372 5.96934 21.3981 5.90506 21.4823C5.84077 21.5666 5.80594 21.6696 5.80591 21.7756V26.1292H6.77338V23.5219Z" fill="#E50914"/>
<path d="M12.3363 26.1289C12.7854 26.1289 13.216 25.9505 13.5335 25.633C13.851 25.3155 14.0294 24.8848 14.0294 24.4358V22.9846C14.0294 22.5356 13.851 22.1049 13.5335 21.7874C13.216 21.4699 12.7854 21.2915 12.3363 21.2915C11.8873 21.2915 11.4567 21.4699 11.1391 21.7874C10.8216 22.1049 10.6432 22.5356 10.6432 22.9846V24.4358C10.6432 24.8848 10.8216 25.3155 11.1391 25.633C11.4567 25.9505 11.8873 26.1289 12.3363 26.1289ZM11.6107 22.9846C11.6107 22.7921 11.6872 22.6076 11.8233 22.4715C11.9593 22.3354 12.1439 22.259 12.3363 22.259C12.5288 22.259 12.7133 22.3354 12.8494 22.4715C12.9855 22.6076 13.0619 22.7921 13.0619 22.9846V24.4358C13.0619 24.6282 12.9855 24.8128 12.8494 24.9489C12.7133 25.085 12.5288 25.1614 12.3363 25.1614C12.1439 25.1614 11.9593 25.085 11.8233 24.9489C11.6872 24.8128 11.6107 24.6282 11.6107 24.4358V22.9846Z" fill="#E50914"/>
<path d="M21.2855 26.1289H23.7042V25.1614H21.7692V24.1939H23.7042V23.2265H21.7692V22.259H23.7042V21.2915H21.2855C21.1572 21.2915 21.0342 21.3425 20.9434 21.4332C20.8527 21.5239 20.8018 21.6469 20.8018 21.7752V25.6451C20.8018 25.7734 20.8527 25.8965 20.9434 25.9872C21.0342 26.0779 21.1572 26.1289 21.2855 26.1289Z" fill="#E50914"/>
<path d="M16.0466 25.9112C16.0908 25.9771 16.1506 26.031 16.2206 26.0683C16.2906 26.1056 16.3688 26.1251 16.4481 26.1251C16.5274 26.1251 16.6056 26.1056 16.6756 26.0683C16.7456 26.031 16.8054 25.9771 16.8496 25.9112L17.8171 24.46C17.87 24.3813 17.8986 24.2888 17.8993 24.1939V21.2915H16.9318V24.0488L16.4481 24.7744L15.9644 24.0488V21.2915H14.9969V24.1939C14.9976 24.2888 15.0262 24.3813 15.0791 24.46L16.0466 25.9112Z" fill="#E50914"/>
<path d="M18.8668 21.2915H19.8343V26.1289H18.8668V21.2915Z" fill="#E50914"/>
<path d="M25.6391 19.3569H4.35465C4.22635 19.3569 4.10331 19.4079 4.01259 19.4986C3.92188 19.5893 3.87091 19.7124 3.87091 19.8407V27.5805C3.87091 27.7088 3.92188 27.8318 4.01259 27.9225C4.10331 28.0133 4.22635 28.0642 4.35465 28.0642H25.6391C25.7674 28.0642 25.8905 28.0133 25.9812 27.9225C26.0719 27.8318 26.1229 27.7088 26.1229 27.5805V19.8407C26.1229 19.7124 26.0719 19.5893 25.9812 19.4986C25.8905 19.4079 25.7674 19.3569 25.6391 19.3569ZM25.1554 27.0967H4.83839V20.3244H25.1554V27.0967Z" fill="#E50914"/>
</svg>
