<svg width="36" height="24" viewBox="0 0 36 24" fill="none" xmlns="http://www.w3.org/2000/svg">
<path d="M35.5034 2.0007C34.8741 1.82455 34.3824 1.33277 34.2062 0.703461C34.1388 0.419596 33.8895 0.216114 33.5979 0.206909H29.7124C29.4208 0.216114 29.1715 0.419596 29.1041 0.703461C28.9395 1.29382 28.4969 1.76655 27.9186 1.96967C27.9525 2.41579 27.9567 2.86368 27.931 3.31036C27.931 3.65316 27.6531 3.93105 27.3103 3.93105C26.9675 3.93105 26.6897 3.65316 26.6897 3.31036C26.6659 2.86364 26.67 2.41587 26.7021 1.96967C26.1238 1.76655 25.6812 1.29382 25.5166 0.703461C25.4492 0.419596 25.1999 0.216114 24.9083 0.206909H2.40207C2.11046 0.216114 1.86119 0.419596 1.79379 0.703461C1.61764 1.33277 1.12586 1.82455 0.496552 2.0007C0.212687 2.0681 0.00920456 2.31737 0 2.60898V21.3911C0.00920456 21.6827 0.212687 21.9319 0.496552 21.9993C1.12586 22.1755 1.61764 22.6673 1.79379 23.2966C1.86176 23.5801 2.1107 23.7833 2.40207 23.7931H24.9083C25.1999 23.7839 25.4492 23.5804 25.5166 23.2966C25.6812 22.7062 26.1238 22.2335 26.7021 22.0304C26.6683 21.5842 26.6641 21.1364 26.6897 20.6897C26.6897 20.3469 26.9675 20.069 27.3103 20.069C27.6531 20.069 27.931 20.3469 27.931 20.6897C27.9548 21.1364 27.9507 21.5842 27.9186 22.0304C28.4969 22.2335 28.9395 22.7062 29.1041 23.2966C29.1715 23.5804 29.4208 23.7839 29.7124 23.7931H33.5979C33.8895 23.7839 34.1388 23.5804 34.2062 23.2966C34.3824 22.6673 34.8741 22.1755 35.5034 21.9993C35.7873 21.9319 35.9908 21.6827 36 21.3911V2.60898C35.9908 2.31737 35.7873 2.0681 35.5034 2.0007ZM1.86207 3.76967C1.86224 3.56399 1.96428 3.37175 2.13455 3.25636C3.06993 2.62139 2.99917 2.06898 3.56897 2.06898H8.45379C8.79659 2.06898 9.07448 2.34687 9.07448 2.68967C9.07448 3.03247 8.79659 3.31036 8.45379 3.31036H3.87807C3.649 3.59559 3.38923 3.85474 3.10345 4.08312V6.48829C3.10345 6.83109 2.82556 7.10898 2.48276 7.10898C2.13996 7.10898 1.86207 6.83109 1.86207 6.48829V3.76967ZM8.45379 21.9311H3.56276C3.35708 21.9309 3.16484 21.8288 3.04945 21.6586C2.41386 20.722 1.86207 20.7946 1.86207 20.2242V17.5117C1.86207 17.1689 2.13996 16.8911 2.48276 16.8911C2.82556 16.8911 3.10345 17.1689 3.10345 17.5117V19.9157C3.38869 20.1445 3.64784 20.4041 3.87621 20.6897H8.45379C8.79659 20.6897 9.07448 20.9676 9.07448 21.3104C9.07448 21.6532 8.79659 21.9311 8.45379 21.9311ZM11.1538 7.18533L8.67103 17.1164C8.60183 17.3925 8.35364 17.5862 8.06896 17.5862C7.78429 17.5862 7.5361 17.3925 7.4669 17.1164L4.98414 7.18533C4.92845 6.96959 4.99267 6.74056 5.1524 6.58522C5.31213 6.42989 5.54287 6.37209 5.75697 6.43377C5.97107 6.49545 6.13568 6.66716 6.18828 6.88367L8.06896 14.4064L9.94966 6.88367C10.0349 6.55343 10.3706 6.35383 10.7015 6.43671C11.0323 6.5196 11.2343 6.8539 11.1538 7.18533ZM13.0345 17.5862C12.6917 17.5862 12.4138 17.3083 12.4138 16.9655C12.4138 16.6227 12.6917 16.3448 13.0345 16.3448H14.2759V7.65519H13.0345C12.6917 7.65519 12.4138 7.3773 12.4138 7.0345C12.4138 6.6917 12.6917 6.41381 13.0345 6.41381H16.7586C17.1014 6.41381 17.3793 6.6917 17.3793 7.0345C17.3793 7.3773 17.1014 7.65519 16.7586 7.65519H15.5172V16.3448H16.7586C17.1014 16.3448 17.3793 16.6227 17.3793 16.9655C17.3793 17.3083 17.1014 17.5862 16.7586 17.5862H13.0345ZM25.7108 20.4327C25.1268 20.7078 24.6258 21.1322 24.2584 21.6629C24.1425 21.8308 23.9516 21.9311 23.7476 21.9311H17.6152C17.2724 21.9311 16.9945 21.6532 16.9945 21.3104C16.9945 20.9676 17.2724 20.6897 17.6152 20.6897H23.436C23.9045 20.1 24.5034 19.627 25.1857 19.308C25.3872 19.2102 25.6258 19.2285 25.8101 19.3559C25.9943 19.4834 26.0955 19.7002 26.075 19.9233C26.0544 20.1464 25.9152 20.3411 25.7108 20.4327ZM18.6207 16.9655V7.0345C18.6207 6.6917 18.8986 6.41381 19.2414 6.41381H21.7241C23.4381 6.41381 24.8276 7.80327 24.8276 9.51726C24.8276 11.2312 23.4381 12.6207 21.7241 12.6207H19.8621V16.9655C19.8621 17.3083 19.5842 17.5862 19.2414 17.5862C18.8986 17.5862 18.6207 17.3083 18.6207 16.9655ZM26.0106 4.39222C25.8656 4.70276 25.4963 4.83697 25.1857 4.69201C24.503 4.37206 23.903 3.89932 23.4323 3.31036H17.6152C17.2724 3.31036 16.9945 3.03247 16.9945 2.68967C16.9945 2.34687 17.2724 2.06898 17.6152 2.06898H23.7414C24.277 2.06898 24.2038 2.51463 25.033 3.15395C25.2429 3.31649 25.4702 3.45514 25.7108 3.56732C26.0214 3.71236 26.1556 4.08165 26.0106 4.39222ZM27.931 18.2069C27.931 18.5497 27.6531 18.8276 27.3103 18.8276C26.9675 18.8276 26.6897 18.5497 26.6897 18.2069V16.9655C26.6897 16.6227 26.9675 16.3448 27.3103 16.3448C27.6531 16.3448 27.931 16.6227 27.931 16.9655V18.2069ZM27.931 14.4828C27.931 14.8256 27.6531 15.1035 27.3103 15.1035C26.9675 15.1035 26.6897 14.8256 26.6897 14.4828V13.2414C26.6897 12.8986 26.9675 12.6207 27.3103 12.6207C27.6531 12.6207 27.931 12.8986 27.931 13.2414V14.4828ZM27.931 10.7586C27.931 11.1014 27.6531 11.3793 27.3103 11.3793C26.9675 11.3793 26.6897 11.1014 26.6897 10.7586V9.51726C26.6897 9.17446 26.9675 8.89657 27.3103 8.89657C27.6531 8.89657 27.931 9.17446 27.931 9.51726V10.7586ZM27.931 7.0345C27.931 7.3773 27.6531 7.65519 27.3103 7.65519C26.9675 7.65519 26.6897 7.3773 26.6897 7.0345V5.79312C26.6897 5.45032 26.9675 5.17243 27.3103 5.17243C27.6531 5.17243 27.931 5.45032 27.931 5.79312V7.0345ZM34.1379 20.2304C34.1378 20.436 34.0357 20.6283 33.8654 20.7437C32.9301 21.3786 33.0008 21.9311 32.431 21.9311H30.8793C30.6779 21.9309 30.489 21.833 30.3728 21.6685C30.0015 21.1359 29.4971 20.7098 28.9099 20.4327C28.7054 20.3411 28.5663 20.1464 28.5457 19.9233C28.5252 19.7002 28.6264 19.4834 28.8106 19.3559C28.9948 19.2285 29.2335 19.2102 29.435 19.308C30.1177 19.628 30.7177 20.1007 31.1884 20.6897H32.1194C32.3493 20.4043 32.6099 20.1452 32.8965 19.9169V4.08436C32.6113 3.85553 32.3522 3.59597 32.1238 3.31036H31.1847C30.7162 3.90008 30.1172 4.37304 29.435 4.69201C29.1256 4.83074 28.7621 4.69548 28.6186 4.38823C28.4752 4.08098 28.6048 3.71547 28.9099 3.56732C29.1499 3.45538 29.3768 3.31716 29.5864 3.15519C30.4368 2.48732 30.3406 2.06898 30.8731 2.06898H32.4372C32.6429 2.06915 32.8352 2.1712 32.9506 2.34146C33.5861 3.27808 34.1379 3.20546 34.1379 3.77588V20.2304Z" fill="#E50914"/>
<path d="M23.5864 9.51728C23.5834 8.49016 22.7515 7.65828 21.7244 7.65521H19.8623V11.3794H21.7244C22.7515 11.3763 23.5834 10.5444 23.5864 9.51728Z" fill="#E50914"/>
</svg>
